<svg xmlns="http://www.w3.org/2000/svg" width="132" height="102.00073709166057" viewBox="0 0 132 102.00073709166057" class="editor-view__logo-preview" data-v-719f541d="" data-v-42122950=""><svg id="mark" viewBox="0 0 778 461" width="100" height="59.254498714652954" x="16" y="0" data-v-719f541d="" style="fill: rgb(0, 0, 0);"><rect x="0" y="0" width="100%" height="100%" fill="none" data-v-719f541d=""></rect><g data-v-719f541d="">
	<path xmlns="http://www.w3.org/2000/svg" d="M 402.755 8.314 C 392.825 23.269, 342.149 89.141, 337.792 92.758 C 336.554 93.785, 335.036 93.547, 329.487 91.459 C 325.603 89.997, 322.322 89.278, 321.821 89.779 C 321.340 90.260, 317.440 96.920, 313.155 104.577 C 297.028 133.400, 269.891 178.131, 265.985 182.332 C 264.341 184.099, 263.992 184.018, 256.130 180.065 C 248.160 176.058, 247.922 176.005, 245.367 177.679 C 238.290 182.316, 209.278 217.266, 182.762 253.097 L 171.220 268.694 162.902 269.388 L 154.585 270.081 148.043 276.252 C 144.444 279.645, 128 295.531, 111.500 311.554 C 95 327.577, 78.575 343.301, 75 346.496 C 65.581 354.914, 48.053 366.045, 36.301 371.072 C 30.691 373.471, 26.227 375.560, 26.381 375.715 C 26.825 376.158, 49.179 369.574, 78 360.511 C 92.575 355.927, 112.150 349.860, 121.500 347.028 C 158.989 335.673, 178.710 324.663, 218.457 292.896 L 239.500 276.078 245.433 265.860 C 251.898 254.727, 264.115 238.778, 273.029 229.831 C 278.037 224.805, 279.631 223.873, 287.089 221.609 C 291.715 220.204, 298.698 218.387, 302.607 217.571 C 312.904 215.422, 314.589 214.367, 319.074 207.265 C 321.297 203.745, 324.592 198.931, 326.396 196.568 C 328.200 194.204, 331.376 189.172, 333.453 185.385 C 335.529 181.598, 339.856 174.450, 343.067 169.500 C 349.145 160.129, 349.222 159.916, 357.347 129.500 C 362.176 111.420, 364.419 105.937, 370.578 97.145 C 392.767 65.474, 401 52.007, 401 47.383 C 401 44.854, 405.951 13.541, 407.583 5.750 C 408.474 1.498, 406.631 2.477, 402.755 8.314 M 408 68.151 C 406.075 70.981, 398.946 80.768, 392.159 89.899 C 385.371 99.029, 378.790 108.525, 377.534 111 C 376.278 113.475, 374.018 120.450, 372.511 126.500 C 367.698 145.818, 362.931 160.252, 358.330 169.438 C 353.027 180.024, 337.050 205.176, 329.491 214.836 C 324.836 220.786, 323.385 221.940, 318.320 223.719 C 315.119 224.843, 305.975 228.307, 298 231.417 C 284.111 236.831, 283.254 237.332, 277.671 243.285 C 270.034 251.428, 257.065 268.632, 253.826 274.918 L 251.262 279.894 253.114 288.697 C 256.545 305.007, 255.008 312.077, 246.723 318.093 C 240.057 322.934, 221.809 333.726, 214.534 337.131 C 210.886 338.838, 208.048 340.381, 208.226 340.560 C 208.747 341.080, 236.912 333.383, 243.500 330.921 C 271.684 320.385, 300.212 294.875, 334.008 249.990 C 346.247 233.735, 348.605 231.481, 364.814 220.549 C 379.490 210.651, 386.068 200.614, 403.512 161.500 C 406.947 153.800, 412.431 141.650, 415.700 134.500 C 418.969 127.350, 422.676 118.912, 423.938 115.750 C 425.200 112.588, 426.518 110.022, 426.866 110.048 C 427.215 110.075, 429.750 114.901, 432.500 120.774 C 438.075 132.678, 455.284 163.153, 466.792 181.500 C 483.873 208.733, 527.265 273.040, 533.396 280.209 C 544.610 293.321, 554.977 301.053, 583 317.207 C 592.075 322.438, 605.985 330.665, 613.912 335.489 C 640.292 351.546, 657.952 358.147, 694.462 365.599 C 711.364 369.049, 743.601 375.006, 745.181 374.971 C 745.906 374.955, 742.900 373.040, 738.500 370.717 C 734.100 368.393, 728.250 364.965, 725.500 363.099 C 718.696 358.481, 686.464 325.975, 669.874 307 C 651.154 285.589, 648.281 282.792, 641.011 278.903 L 634.649 275.500 617.786 248.500 C 608.511 233.650, 599.241 218.509, 597.187 214.854 L 593.452 208.208 583.972 216.354 C 578.759 220.834, 573.191 225.516, 571.601 226.759 L 568.709 229.017 572.835 234.759 C 575.105 237.916, 581.753 247.475, 587.607 256 C 596.897 269.527, 626.111 309.996, 633.807 320 C 635.669 322.420, 634.156 321.422, 628.904 316.766 C 616.412 305.690, 585.917 272.004, 569.745 251.416 C 564.316 244.505, 561.997 243.489, 542.892 239.650 L 531.924 237.446 542.961 228.576 C 556.812 217.446, 556.783 217.480, 554.188 215.256 C 551.740 213.157, 539.156 194.214, 520.749 164.920 C 506.151 141.689, 490.881 118.023, 484.344 108.500 C 479.477 101.411, 465.987 85.679, 465.335 86.332 C 464.834 86.832, 467.084 105.131, 469.919 123.623 C 470.921 130.155, 471.632 135.629, 471.500 135.786 C 471.129 136.230, 449.903 112.451, 442.680 103.500 C 439.130 99.100, 430.950 88.300, 424.502 79.500 C 418.054 70.700, 412.491 63.388, 412.140 63.252 C 411.788 63.116, 409.925 65.320, 408 68.151 M 429 170.260 C 429 172.686, 423.818 185.527, 416.975 200.058 C 413.722 206.965, 410.571 214.904, 409.971 217.701 C 408.775 223.279, 409.267 225.129, 417.499 246 C 421.033 254.962, 421.250 256.151, 421.316 267 C 421.375 276.694, 421.030 279.402, 419.122 284.247 C 414.897 294.975, 406.922 301.748, 383.500 314.498 C 372.178 320.662, 359.076 330.021, 352.003 336.998 C 346.237 342.686, 337 354.711, 337 356.529 C 337 356.881, 338.688 355.835, 340.750 354.207 C 348.108 348.395, 370.656 334.180, 379.750 329.619 C 390.483 324.236, 399.585 321.108, 417 316.817 C 432.248 313.061, 438.535 310.380, 444.178 305.229 C 449.523 300.350, 451.312 299.416, 457 298.536 C 465.177 297.269, 472.322 294.562, 475.571 291.498 C 481.554 285.855, 482.657 275.019, 478.354 264.171 C 472.987 250.641, 433.708 173.567, 430.380 170.036 C 429.173 168.755, 429 168.784, 429 170.260 M 547.483 340.189 C 521.561 361.048, 494.553 381, 492.238 381 C 490.868 381, 481.163 374.809, 465.229 363.770 C 457.990 358.755, 453.465 356.221, 452.639 356.720 C 451.931 357.149, 443.509 363.399, 433.925 370.610 C 383.483 408.559, 347.556 429.313, 313.165 440.371 C 296.009 445.887, 288.744 447.489, 267.500 450.439 L 250.500 452.799 319.500 452.524 C 392.745 452.231, 394.261 452.143, 412.500 447.133 C 425.828 443.471, 430.573 441.571, 446.500 433.514 C 490.011 411.503, 529.445 379.101, 553.131 345.899 C 558.755 338.016, 563.629 329.295, 562.847 328.514 C 562.637 328.304, 555.723 333.557, 547.483 340.189 M 597.088 348.706 C 608.842 376.127, 639.403 405.735, 673.500 422.738 C 688.260 430.098, 702.783 435.099, 720.500 438.923 C 739.940 443.118, 744.594 443.891, 753.500 444.403 L 762.500 444.921 746 439.101 C 725.363 431.823, 721.296 430.173, 709.962 424.481 C 689.059 413.983, 669.041 400.273, 623.136 365.017 C 608.085 353.457, 595.614 344, 595.421 344 C 595.229 344, 595.979 346.118, 597.088 348.706 M 151 375.713 C 130.669 391.042, 85.307 420.315, 70.579 427.610 C 56.538 434.566, 37.938 441.359, 21.500 445.537 C 10.919 448.226, 11.585 448.996, 22.672 446.891 C 50.042 441.697, 51.255 441.592, 79 442.010 C 93.575 442.230, 124.625 442.379, 148 442.342 C 193.696 442.270, 204.098 441.529, 229.623 436.530 C 236.705 435.143, 245.425 433.980, 249 433.946 C 252.575 433.912, 257.300 433.563, 259.500 433.169 C 263.118 432.522, 262.047 432.155, 248.300 429.328 C 238.832 427.381, 231.047 425.163, 227.654 423.445 C 222.746 420.960, 212.937 413.126, 176.918 382.927 C 170.638 377.662, 164.150 372.443, 162.500 371.329 L 159.500 369.304 151 375.713 M 311.666 386.072 C 282.063 400.654, 274.922 402.340, 256.637 399.067 L 244.849 396.956 237.174 400.409 C 232.953 402.309, 226.592 404.945, 223.038 406.268 L 216.576 408.673 221.538 412.335 C 224.267 414.350, 228.884 417.186, 231.797 418.639 C 236.464 420.967, 237.866 421.208, 243.599 420.673 C 250.638 420.016, 265.210 414.374, 275 408.517 C 282.253 404.177, 289.899 400.429, 293 399.693 C 294.375 399.367, 299.639 399.019, 304.698 398.919 C 312.668 398.763, 314.152 398.456, 315.809 396.620 C 318.351 393.804, 328.263 378.915, 327.835 378.555 C 327.651 378.400, 320.375 381.782, 311.666 386.072" stroke="none" fill="inherit" fill-rule="evenodd"></path>
</g></svg><svg id="name" viewBox="0 0 132.8564453125 34.9716796875" width="132" height="34.74623837700761" x="0" y="67.25449871465295" data-v-719f541d="" style="fill: rgb(0, 0, 0);"><rect x="0" y="0" width="100%" height="100%" fill="none" data-v-719f541d=""></rect><g data-v-719f541d=""><path xmlns="http://www.w3.org/2000/svg" d="M14.55 1.82L13.97 7.66L6.94 34.52L0 34.52L10.22 1.82L14.55 1.82ZM26.50 34.52L19.52 34.52L12.44 7.66L11.79 1.82L16.19 1.82L26.50 34.52ZM5.01 22.33L19.77 22.33L19.77 27.78L5.01 27.78L5.01 22.33ZM36.32 34.52L36.45 29.67L40.36 10.22L46.92 10.22L40.25 34.52L36.32 34.52ZM27.56 10.22L34.14 10.22L38.12 29.69L38.18 34.52L34.23 34.52L27.56 10.22ZM49.93 0L56.22 0L56.22 34.52L49.93 34.52L49.93 0ZM61.50 10.22L69 10.22L60.44 22.30L55.30 28.08L53.08 23.29L57.03 17.52L61.50 10.22ZM69.65 34.52L62.44 34.52L57.14 23.36L61.48 19.36L69.65 34.52ZM82.63 28.93L82.63 28.93L82.63 17.70Q82.63 16.60 82.38 15.95Q82.12 15.30 81.61 14.99Q81.11 14.69 80.39 14.69L80.39 14.69Q79.58 14.69 79.04 15.03Q78.50 15.36 78.24 15.99Q77.98 16.62 77.98 17.50L77.98 17.50L71.67 17.50Q71.67 15.92 72.28 14.52Q72.89 13.12 74.06 12.05Q75.24 10.98 76.88 10.38Q78.52 9.77 80.57 9.77L80.57 9.77Q82.99 9.77 84.88 10.59Q86.77 11.41 87.87 13.18Q88.97 14.96 88.97 17.79L88.97 17.79L88.97 28.62Q88.97 30.66 89.18 31.94Q89.39 33.22 89.82 34.14L89.82 34.14L89.82 34.52L83.49 34.52Q83.06 33.51 82.85 32.00Q82.63 30.48 82.63 28.93ZM80.90 19.68L83.40 19.68L83.42 23.45L81.11 23.45Q80.21 23.45 79.55 23.74Q78.88 24.03 78.43 24.56Q77.98 25.09 77.77 25.79Q77.56 26.48 77.56 27.27L77.56 27.27Q77.56 28.14 77.80 28.75Q78.05 29.36 78.55 29.67Q79.04 29.99 79.71 29.99L79.71 29.99Q80.75 29.99 81.51 29.56Q82.27 29.13 82.65 28.53Q83.02 27.92 82.88 27.40L82.88 27.40L84.32 29.85Q84.05 30.68 83.59 31.58Q83.13 32.48 82.43 33.24Q81.74 34.01 80.71 34.49Q79.69 34.97 78.30 34.97L78.30 34.97Q76.34 34.97 74.73 34.07Q73.11 33.17 72.18 31.56Q71.25 29.94 71.25 27.72L71.25 27.72Q71.25 25.88 71.84 24.38Q72.44 22.89 73.63 21.84Q74.82 20.80 76.64 20.24Q78.46 19.68 80.90 19.68L80.90 19.68ZM99.34 10.22L99.77 15.41L99.77 34.52L93.46 34.52L93.46 10.22L99.34 10.22ZM98.83 21.54L98.83 21.54L97.14 21.58Q97.10 18.84 97.67 16.67Q98.24 14.49 99.31 12.95Q100.38 11.41 101.86 10.59Q103.34 9.77 105.21 9.77L105.21 9.77Q106.62 9.77 107.80 10.26Q108.98 10.76 109.83 11.84Q110.69 12.92 111.16 14.69Q111.63 16.46 111.63 19.07L111.63 19.07L111.63 34.52L105.32 34.52L105.32 19.02Q105.32 17.45 105.00 16.59Q104.69 15.72 104.07 15.37Q103.46 15.03 102.49 15.03L102.49 15.03Q101.59 15.03 100.89 15.52Q100.20 16.01 99.74 16.90Q99.28 17.79 99.04 18.98Q98.81 20.17 98.83 21.54ZM117.43 29.29L132.86 29.29L132.86 34.52L117.43 34.52L117.43 29.29ZM132.70 10.22L132.70 14.04L119.90 34.52L115.70 34.52L115.70 30.57L128.45 10.22L132.70 10.22ZM115.94 10.22L130.50 10.22L130.50 15.45L115.94 15.45L115.94 10.22Z"></path></g></svg><!----></svg>